<svg xmlns="http://www.w3.org/2000/svg" viewBox="0 0 501.55 385.05"><defs><clipPath id="prefix__prefix__clip-path"><path d="M361 259.3L200.7 238a43.23 43.23 0 00-11.19.27l-59.46 9.22c-3.08.57-3.07 1.44 0 1.95l150.18 25a36.57 36.57 0 0011.15-.21l69.63-13c3.09-.67 3.06-1.52-.01-1.93z" fill="none"/></clipPath><style>.prefix__prefix__cls-12,.prefix__prefix__cls-13{fill:none}.prefix__prefix__cls-2{fill:#511aea}.prefix__prefix__cls-3{fill:#230962}.prefix__prefix__cls-4{fill:#b2b2b2}.prefix__prefix__cls-5{fill:#fff}.prefix__prefix__cls-10{fill:#1ac886}.prefix__prefix__cls-12,.prefix__prefix__cls-13{stroke:#511aea;stroke-miterlimit:10;stroke-linecap:round}.prefix__prefix__cls-12{stroke-width:4px}.prefix__prefix__cls-13{stroke-width:2px}</style></defs><g id="prefix__prefix__Layer_2" data-name="Layer 2"><g id="prefix__prefix__content"><ellipse class="prefix__prefix__cls-2" cx="251.54" cy="339.93" rx="194.45" ry="45.12"/><path class="prefix__prefix__cls-3" d="M222.8 289.44s156.36 28.23 163.42 29.81 10.53 2.44 10.53 4.56c0 2.91-4.73 3.12-10.53 4.5l-138 32.74a79.91 79.91 0 01-21.35-.07s-180-34.73-182.56-39.07 178.49-32.47 178.49-32.47z"/><path class="prefix__prefix__cls-4" d="M442.62 68.14a8 8 0 018.12 9.86L415.3 258.13a10.88 10.88 0 01-11.92 8.57z"/><path d="M228.56 78a13.16 13.16 0 0112.27-9.81h199.78a8 8 0 018.11 9.81l-35.44 180.13a10.88 10.88 0 01-11.92 8.57l-199.19-26a9 9 0 01-7.76-11.12z"/><path class="prefix__prefix__cls-2" d="M406.31 265.86s0 5.72-7.7 8.09c-3 1-12.05 2.83-17.55 3.67l-116.83 21.6a75.11 75.11 0 01-19.87-.14L59 267.07s-9-1.37-9-3.24v-5.08l143.93-15.49z"/><path class="prefix__prefix__cls-4" d="M193.93 243.26l124.46 16.48 87.92.58v5.54c0 3.05-4.45 6.24-9.94 7.11l-130.81 23.76a74.2 74.2 0 01-19.86-.06L54 264.58c-2.19-.37-4-1.35-4-2.18v-4.51l21.3.23z"/><path class="prefix__prefix__cls-5" d="M51.64 257.26L190 232.89a30.74 30.74 0 018-.17l206.72 26.89c2.21.29 2.23.9.05 1.36l-139.3 29.23a63.35 63.35 0 01-19.77.45l-194-32c-2.24-.39-2.25-1-.06-1.39z"/><path d="M130.05 247.44l59.46-9.22a43.23 43.23 0 0111.19-.22L361 259.3c3.1.41 3.13 1.26.06 1.88l-69.63 13a36.57 36.57 0 01-11.15.21l-150.18-25c-3.1-.51-3.1-1.39-.05-1.95z"/><path d="M212.37 235.13l1.48-.34 20.15 2.62-2.4.39a16.56 16.56 0 01-4 .06l-15.23-2c-1.05-.17-1.07-.49 0-.73zm127.31 16.77l2.93-.36 24.07 3.13-3.14.39a18.35 18.35 0 01-4 0l-19.87-2.63c-1.09-.17-1.09-.43.01-.53z" fill="#c6c6c6"/><path class="prefix__prefix__cls-2" d="M433.82 84.18l-31.21 163.93-196.62-27.09 30.39-136.84h197.44z"/><path class="prefix__prefix__cls-3" d="M426.38 68.7l-31.2 163.93-198.57-21.35L228.94 68.7h197.44z"/><path class="prefix__prefix__cls-5" d="M421.38 58.7l-31.2 163.93-198.57-18.35L223.94 58.7h197.44z"/><path d="M125.26 264l23-4.59a54.39 54.39 0 0116.75-.21l46.49 8.13c4.64.81 4.63 2.08 0 2.84l-25.84 4.24a61.53 61.53 0 01-16.82 0l-43.48-7.29c-4.69-.79-4.71-2.12-.1-3.12z" fill="#dadada"/><g clip-path="url(#prefix__prefix__clip-path)"><path class="prefix__prefix__cls-5" d="M125.05 246.67l9.6 1.6-6.25 1 .4.07 6.26-1 11.56 1.93-6.32 1 .42.08 6.32-1 12 2-6.38 1 .43.07 13.1-2.12 10.15 1.7-13.2 2.18.45.08 13.2-2.18 10.49 1.7L174 257l.45.08 13.31-2.25 59.38 9.67-13.78 2.63.53.1 13.79-2.64 12.58 2-13.87 2.72.55.09 13.88-2.72 13 2.11-13.95 2.82.57.09 14-2.81 13.41 2.18-14 2.91.59.1 14-2.91 14 2.28.63-.13-28.93-4.7 13.59-2.74 29.06 4.51.63-.13-23.86-3.69 13.59-2.77 23.95 3.54.62-.13-16.56-2.45 13.59-2.8 16.62 2.33.62-.13-12.12-1.7 13.58-2.83 12.73 1.68.62-.13-12.7-1.67 8.32-1.74-.68-.08-8.31 1.73-11.53-1.54 8.29-1.69-.66-.08-8.29 1.68-11.24-1.44 8.27-1.64-.64-.08-8.27 1.64-10.95-1.46 8.24-1.61-.62-.08-8.24 1.6-10.68-1.42 8.21-1.56-.61-.08-8.21 1.56-10.41-1.39 8.18-1.52-.59-.08-8.19 1.52-10.16-1.36 8.15-1.48-.58-.07-8.15 1.48-9.94-1.32 8.12-1.44-.57-.08-8.12 1.45-9.68-1.29 8.09-1.41-.56-.07-8.08 1.4-9.45-1.26 8.05-1.37-.54-.07-8 1.37-9.28-1.23 8-1.34-.53-.07-8 1.34-9-1.2 8-1.31-.51-.07-8 1.31-8.81-1.18 7.92-1.28-.5-.06-7.93 1.28-8.61-1.15 7.88-1.25-.49-.07-7.88 1.25-8.43-1.12 7.84-1.22-.48-.06-7.86 1.2-8.24-1.1 7.8-1.19-.47-.06-7.8 1.19-8.13-1.08-.57.08 15.82 2.16-12.74 2-15.68-2.2-.58.09 12.5 1.75-12.68 2-12.37-1.82-.57.08 17.22 2.55-12.67 2-17.06-2.64-.57.08 23.39 3.49-12.7 2-23.19-3.77-.56.08 9.66 1.58-6 .92-9.61-1.6zm43.4.77l10 1.55-12.8 2.06-9.89-1.6zm36.17-2.87L215 246l-12.93 2.13-10.33-1.52zm-13.3 2l-10-1.48 12.76-2 10.14 1.43zm24.17-.47l10.71 1.5-13 2.19-10.63-1.56zm11.18 1.57l11 1.55-13.1 2.25-10.93-1.61zm11.49 1.62l11.33 1.59-13.18 2.32-11.25-1.65zM250 251l11.65 1.64-13.27 2.36-11.58-1.7zm12.16 1.71l12 1.68-13.33 2.48-11.93-1.76zm12.53 1.76l12.31 1.69-13.41 2.55-12.28-1.81zm12.9 1.81l12.73 1.72-13.47 2.63-12.67-1.86zm13.3 1.87L314 260l-13.53 2.71-13.06-1.92zm-8.17 3.63l-13.52 2.68-12.79-2 13.45-2.6zm-26.85.61l-12.4-1.92 13.38-2.51 12.46 1.84zm-12.93-2l-12-1.86 13.3-2.44 12.09 1.79zm-12.54-1.99l-11.66-1.81 13.26-2.36 11.69 1.77zm-12.16-1.88l-11.32-1.76 13.13-2.29 11.4 1.69zm-11.81-1.83l-11-1.7 13-2.23 11.08 1.64zM205 252.91l-10.68-1.65 13-2.16 10.68 1.59zm-11.14-1.72l-10.38-1.61 12.86-2.09 10.44 1.51zM183 249.51L172.91 248l12.77-2 10.18 1.5zm-7.66-5.12l9.9 1.46-12.76 2-9.82-1.52zM193.6 243l-12.76 2-9.79-1.45 12.68-2zm16.68-1.66l-12.83 2-9.95-1.34 12.74-2zm10.72 1.45l-12.9 2.09-10.23-1.43 12.83-2zm11 1.48l-13 2.15-10.43-1.42 12.91-2.1zm11.34 1.52l-13 2.21-10.8-1.51 13-2.16zm11.66 1.56l-13.14 2.28-11.11-1.56 13.07-2.22zm12 1.6l-13.21 2.35-11.43-1.6 13.14-2.29zm12.34 1.65l-13.23 2.4-11.76-1.65 13.22-2.35zm12.7 1.7l-13.36 2.49-12.11-1.7 13.29-2.42zm13.13 1.7l-13.42 2.58-12.47-1.75 13.35-2.5zm13.46 1.8l-13.47 2.66-12.86-1.81 13.42-2.57zm13.88 1.86L319 260.44l-13.25-1.86 13.47-2.66zm-12.94 2.82l13.53-2.74 13.71 1.83-13.57 2.83zm-18.52 2.23l13.53-2.71 13.54 1.9-13.59 2.81zm-21.29 1.74l13.52-2.68 13.26 2-13.54 2.77zm-19.18 2l13.51-2.65 13 2-13.58 2.74zm-13.12-2.13l13.43-2.57 12.64 2-13.53 2.64zm-12.7-2.07l13.35-2.48 12.24 1.9-13.42 2.56zm-12.32-2l13.26-2.4 11.88 1.84-13.34 2.48zm-11.95-1.94l13.17-2.31 11.53 1.79-13.26 2.4zm-11.6-1.88l13.11-2.24 11.19 1.74-13.19 2.33zm-11.25-1.83l13-2.2 10.87 1.69-13.08 2.26zm-10.94-1.78l12.9-2.13 10.56 1.64-13 2.19zm-10.62-1.73l12.8-2.06 10.27 1.59-12.9 2.13zm-18.46-.87l6.07-.95 12 1.95-6.14 1zm-12-2l6-.93 11.62 1.9-6.07 1z"/></g><path class="prefix__prefix__cls-3" d="M381.81 154.73l8.68-45.56a1 1 0 00-1-1.19l-64.64-1.86a1 1 0 00-1 .78l-9.53 42.53a1 1 0 00.9 1.22l65.51 4.89a1 1 0 001.08-.81zm10.57-55.51l9.77-51.34a1 1 0 00-1-1.18H205.74a1 1 0 00-1 .78l-10.12 45.69a1 1 0 00.95 1.22l195.8 5.61a1 1 0 001.01-.78zm-167.91 45.21l8.91-39.76a1 1 0 00-.94-1.22l-39-1.12a1 1 0 00-1 .78l-8.61 38.76a1 1 0 00.92 1.22l38.72 2.12a1 1 0 001-.78zm-3.14 8.68L182.64 151a1 1 0 00-1 .79l-8.75 39.4a1 1 0 00.89 1.21l38.22 3.52a1 1 0 001.07-.78l9.15-40.81a1 1 0 00-.89-1.22z"/><path d="M376.81 143.73l8.68-45.56a1 1 0 00-1-1.19l-64.64-1.86a1 1 0 00-1 .78l-9.53 42.53a1 1 0 00.9 1.22l65.51 4.89a1 1 0 001.08-.81z" fill="#9855ff"/><path class="prefix__prefix__cls-10" d="M387.38 88.22l9.77-51.34a1 1 0 00-1-1.18H200.74a1 1 0 00-1 .78l-10.12 45.69a1 1 0 00.95 1.22L386.37 89a1 1 0 001.01-.78z"/><path d="M219.47 133.43l8.91-39.76a1 1 0 00-.94-1.22l-39-1.12a1 1 0 00-1 .78l-8.61 38.76a1 1 0 00.92 1.22l38.72 2.12a1 1 0 001-.78z" fill="#a7a9ac"/><path class="prefix__prefix__cls-10" d="M216.33 142.11L177.64 140a1 1 0 00-1 .79l-8.75 39.4a1 1 0 00.89 1.21l38.22 3.52a1 1 0 001.07-.78l9.15-40.81a1 1 0 00-.89-1.22z"/><path class="prefix__prefix__cls-12" d="M280 110.46l-35.67-1.32"/><path class="prefix__prefix__cls-13" d="M305.69 124.1l-63.93-3.48m44.95 8.87l-46.37-2.63m60.93 16.38l-63.77-3.91m27.55 8.08l-28.96-1.84M298.33 156l-63.66-4.19m47.28 9.55l-48.7-3.32m62.13 10.71l-63.55-4.47m56.14 10.42l-57.55-4.19m15.12 7.48L229 176.75m51.05 10.29l-52.47-4.05m61.91 11.28l-63.33-5.05"/><path class="prefix__prefix__cls-12" d="M358.41 165.46l-41.24-3.3"/><path class="prefix__prefix__cls-13" d="M361.88 175.59l-47.3-3.93m52.87 10.79l-54.35-4.6m47.03 10.36l-48.52-4.17M364.66 195l-54.53-4.78m46.75 10.49l-48.23-4.3"/><path d="M406.69 37.43a6.43 6.43 0 003.89-3.89.65.65 0 011.22 0 6.43 6.43 0 003.89 3.89.65.65 0 010 1.21 6.43 6.43 0 00-3.89 3.89.65.65 0 01-1.22 0 6.43 6.43 0 00-3.89-3.89.65.65 0 010-1.21zM27.43 301.38a6.41 6.41 0 003.89-3.89.66.66 0 011.22 0 6.41 6.41 0 003.89 3.89.66.66 0 010 1.22 6.41 6.41 0 00-3.89 3.89.65.65 0 01-1.22 0 6.41 6.41 0 00-3.89-3.89.65.65 0 010-1.22zM153.16 55.77a6.43 6.43 0 003.89-3.89.65.65 0 011.21 0 6.43 6.43 0 003.89 3.89.65.65 0 010 1.22 6.43 6.43 0 00-3.89 3.89.65.65 0 01-1.21 0 6.43 6.43 0 00-3.89-3.88.65.65 0 010-1.23zM66 290.65a2.17 2.17 0 10-2.17 2.17 2.17 2.17 0 002.17-2.17zM21 250a4.7 4.7 0 10-4.7 4.7A4.7 4.7 0 0021 250zM492.92 55.92a3 3 0 11-3.05-3 3 3 0 013.05 3zM444.93 4.05a3.05 3.05 0 11-3.05-3 3 3 0 013.05 3z" fill="#ff3aa3"/><path d="M147 110.18a6.71 6.71 0 10-6.71 6.71 6.7 6.7 0 006.71-6.71z" stroke-linejoin="round" stroke="#ff3aa3" stroke-width="2" stroke-linecap="round" fill="none"/><path d="M479.19 32.45h21.36M372.07 1h-16.59m-227.8 80.59h-15.47m-97 199.13H1m107.63 24.17H93.2m-33.6-76.26h-5.03M473.55 89.46h-5.03" stroke-linejoin="round" stroke="#00fefc" stroke-width="2" stroke-linecap="round" fill="none"/></g></g></svg>